<?xml version="1.0" encoding="UTF-8"?><svg id="a" xmlns="http://www.w3.org/2000/svg" viewBox="0 0 500 500"><path d="M240.47,370.78c-54.83-23.19-110.83-24.23-169.56-11.41,0-5.6,0-9.87,0-14.14,.01-82.31,.27-164.63-.25-246.94-.07-11.56,4.12-17.15,14.47-20.21,54.67-16.18,104.44-3.13,151.44,25.52,2.96,1.8,5.18,7.3,5.2,11.09,.25,83.2,.14,166.41,.04,249.61,0,1.64-.65,3.28-1.33,6.48Z" style="fill:#231f20;"/><path d="M429.14,359.41c-58.99-12.83-114.57-11.8-169.98,11.61-.42-5.73-1-9.91-1-14.1-.08-79.2-.23-158.39,.18-237.59,.03-5.73,2.66-14.16,6.89-16.74,44.03-26.89,91.25-39.09,142.71-26.68,19.91,4.8,21.17,6.98,21.17,27.06,.01,79.64,.02,159.28,.03,238.93,0,5.25,0,10.5,0,17.51Z" style="fill:#231f20;"/><path d="M463.82,396.06v-17.35c0-81.51,0-163.01,0-244.52,0-3.56-.24-7.16,.13-10.68,1.19-11.34,8.46-16.67,19.04-16.26,10.01,.39,16.82,5.94,16.89,16.86,.17,26.72,.1,53.45,.1,80.17,0,67.7,.04,135.4-.03,203.1-.02,19.83-1.69,21.42-21.27,21.42-66.36,.02-132.73,0-199.09,0-1.34,0-2.67-.06-4.01,0-8.27,.36-16.97-1.44-16.39-10.87,.3-4.95,7.24-12.03,12.59-13.72,36.81-11.61,74.74-16.23,113.3-14.09,25.68,1.43,51.31,3.83,78.74,5.93Z" style="fill:#231f20;"/><path d="M36.23,396.11c26.88-2.12,52.04-4.54,77.25-5.98,39-2.23,77.38,2.31,114.63,14.01,5.38,1.69,12.38,8.68,12.74,13.64,.67,9.42-7.98,11.04-16.27,11.03-69.03-.07-138.06-.2-207.09,.15C4.77,429.03-.02,423.9,0,411.51,.19,316.65,.05,221.79,.14,126.93c.01-12.67,7.13-20.11,18.09-19.93,11.28,.19,17.95,8.01,17.97,21.7,.07,83.73,.03,167.46,.04,251.18,0,5.22,0,10.45,0,16.22Z" style="fill:#231f20;"/></svg>