<?xml version="1.0" encoding="utf-8"?>
<!-- Generator: Adobe Illustrator 26.2.1, SVG Export Plug-In . SVG Version: 6.00 Build 0)  -->
<svg version="1.1" id="Layer_1" xmlns="http://www.w3.org/2000/svg" xmlns:xlink="http://www.w3.org/1999/xlink" x="0px" y="0px"
	 viewBox="0 0 500 500" style="enable-background:new 0 0 500 500;" xml:space="preserve">
<style type="text/css">
	.st0{fill:#231F20;}
	.st1{fill:#FFFFFF;}
	.st2{fill:none;stroke:#231F20;stroke-width:6;stroke-miterlimit:10;}
</style>
<g>
	<path class="st0" d="M433.6,500H66.4C29.7,500,0,470.3,0,433.6V66.4C0,29.7,29.7,0,66.4,0h367.2C470.3,0,500,29.7,500,66.4v367.2
		C500,470.3,470.3,500,433.6,500z"/>
	<g>
		<path class="st1" d="M243,338.6c-40.2-17-81.3-17.8-124.4-8.4c0-4.1,0-7.2,0-10.4c0-60.4,0.2-120.8-0.2-181.2
			c-0.1-8.5,3-12.6,10.6-14.8c40.1-11.9,76.6-2.3,111.1,18.7c2.2,1.3,3.8,5.4,3.8,8.1c0.2,61.1,0.1,122.1,0,183.2
			C244,335.1,243.5,336.3,243,338.6z"/>
		<path class="st1" d="M381.5,330.3c-43.3-9.4-84.1-8.7-124.7,8.5c-0.3-4.2-0.7-7.3-0.7-10.3c-0.1-58.1-0.2-116.2,0.1-174.4
			c0-4.2,2-10.4,5.1-12.3c32.3-19.7,67-28.7,104.7-19.6c14.6,3.5,15.5,5.1,15.5,19.9c0,58.4,0,116.9,0,175.3
			C381.5,321.3,381.5,325.2,381.5,330.3z"/>
		<path class="st1" d="M406.9,357.2c0-5,0-8.9,0-12.7c0-59.8,0-119.6,0-179.4c0-2.6-0.2-5.3,0.1-7.8c0.9-8.3,6.2-12.2,14-11.9
			c7.3,0.3,12.3,4.4,12.4,12.4c0.1,19.6,0.1,39.2,0.1,58.8c0,49.7,0,99.4,0,149c0,14.5-1.2,15.7-15.6,15.7c-48.7,0-97.4,0-146.1,0
			c-1,0-2,0-2.9,0c-6.1,0.3-12.5-1.1-12-8c0.2-3.6,5.3-8.8,9.2-10.1c27-8.5,54.8-11.9,83.1-10.3C368,353.9,386.8,355.6,406.9,357.2z
			"/>
		<path class="st1" d="M93.1,357.2c19.7-1.6,38.2-3.3,56.7-4.4c28.6-1.6,56.8,1.7,84.1,10.3c3.9,1.2,9.1,6.4,9.3,10
			c0.5,6.9-5.9,8.1-11.9,8.1c-50.7-0.1-101.3-0.1-152,0.1c-9.3,0-12.8-3.7-12.8-12.8c0.1-69.6,0-139.2,0.1-208.8
			c0-9.3,5.2-14.8,13.3-14.6c8.3,0.1,13.2,5.9,13.2,15.9c0,61.4,0,122.9,0,184.3C93.1,349.2,93.1,353,93.1,357.2z"/>
	</g>
</g>
</svg>
