<?xml version="1.0" encoding="UTF-8"?><svg id="a" xmlns="http://www.w3.org/2000/svg" viewBox="0 0 464 500"><path d="M388.5,201.6c1.73,32.41-7.4,65.9-26,96.13-8.73,14.19-5.81,22.08,5.14,32.63,27.81,26.8,54.92,54.38,81.34,82.56,16.49,17.59,19.39,42.18,8.73,61.13-11.23,19.94-28.86,28.09-51.51,25.48-13.63-1.57-23.57-9.54-32.77-18.86-28.22-28.56-56.88-56.71-84.54-85.81-10.11-10.63-19.16-13.45-33.79-8.87C143.28,420.94,30.1,355.93,4.92,243.12-20.43,129.61,54.91,18.76,168.79,2.01c115.63-17,219.73,75.89,219.71,199.58Zm-192.98,123.44c69.31-.19,124.44-55.56,125.46-126,1.01-69.97-56.16-127.49-126.69-127.47-69.1,.03-124.69,56.32-124.83,126.41-.14,71.47,55.2,127.25,126.06,127.05Z" style="fill:#231f20;"/></svg>