<?xml version="1.0" encoding="utf-8"?>
<!-- Generator: Adobe Illustrator 26.2.1, SVG Export Plug-In . SVG Version: 6.00 Build 0)  -->
<svg version="1.1" id="Layer_1" xmlns="http://www.w3.org/2000/svg" xmlns:xlink="http://www.w3.org/1999/xlink" x="0px" y="0px"
	 viewBox="0 0 500 500" style="enable-background:new 0 0 500 500;" xml:space="preserve">
<style type="text/css">
	.st0{fill:#231F20;}
	.st1{fill:#FFFFFF;}
	.st2{fill:none;stroke:#231F20;stroke-width:6;stroke-miterlimit:10;}
</style>
<g>
	<g>
		<path class="st0" d="M257.5,500c-5,0-10.1,0-15.1,0c-0.7-0.2-1.4-0.1-2.1-0.2c-5.8-0.1-11.5-0.5-17.3-1.2c-8-0.9-16-2.2-24-3.7
			c-7.5-1.5-12.1-5.8-13.4-12.8c-1.1-6.1-2.3-12.2-3.4-18.4c-2.4-13.3-4.9-26.6-7.3-39.8c-1.3-7.2-4.8-13.2-10.6-17.7
			c-7.4-5.8-15.8-7.8-25-5.6c-3.6,0.8-7,2.3-10.4,3.5c-10.4,3.7-20.8,7.4-31.3,11.1c-6,2.1-12,4.3-18.1,6.4
			c-5.3,1.8-10.3,0.9-14.7-2.6c-1.5-1.2-2.6-2.8-3.9-4.2c-9.8-11.1-18.5-23-26.2-35.6c-7-11.5-13.1-23.5-18.1-36.1
			c-2.5-6.3-5.1-12.5-6.6-19.1c0-1.1,0-2.1,0-3.2c0.6-4,2.4-7.3,5.4-9.9c1.7-1.4,3.4-2.9,5.1-4.3c13.7-11.6,27.4-23,41-34.7
			c8.1-7,11.2-16.2,9.5-26.8c-1.2-7.3-5-13.2-10.6-18c-13.9-11.7-27.7-23.5-41.7-35.2c-4.1-3.5-8-6.9-8.7-12.7c0-1.1,0-2.1,0-3.2
			c0.3-1.7,0.8-3.4,1.4-5.1c3.2-9.3,6.8-18.5,11-27.4c6-12.7,13.1-24.8,21.1-36.4c6-8.6,12.5-16.7,19.5-24.5c4-4.5,9-6,14.9-4.7
			c2.8,0.6,5.5,1.8,8.2,2.8c8.5,3,17,6.1,25.5,9.1c8,2.8,16,5.7,24,8.5c4.8,1.7,9.6,2.4,14.6,1.5c12.2-2,21.5-10.7,24.2-22.7
			c0.6-2.6,1-5.3,1.5-7.9c3.1-17.2,6.3-34.3,9.4-51.5c1.2-6.7,5.8-11.3,12.4-12.6c5.3-1,10.5-2,15.9-2.8c10.1-1.5,20.3-2.2,30.5-2.5
			c5-0.1,10.1,0,15.1,0.1c5.6,0.2,11.2,0.5,16.8,1.1c8.6,0.9,17.2,2.3,25.7,4c6.1,1.3,10.7,5.7,11.9,11.8c1.2,6.4,2.4,12.8,3.6,19.2
			c2.4,13.2,4.8,26.3,7.2,39.5c1.8,9.5,6.9,16.7,15.5,21.2c6.2,3.2,12.9,4.2,19.8,2.6c3.7-0.9,7.3-2.3,10.9-3.6
			c8.1-2.8,16.1-5.7,24.1-8.6c8.4-3,16.7-6,25.1-8.9c5.3-1.8,10.3-1,14.7,2.6c2,1.6,3.5,3.6,5.1,5.5c11.5,13.3,21.5,27.6,30,42.9
			c7.7,13.8,13.9,28.2,18.8,43.2c2,6.1,0.6,11.4-4,15.8c-2.4,2.2-4.9,4.2-7.4,6.3c-11.5,9.7-23,19.4-34.5,29.2
			c-2.4,2-4.9,3.8-6.9,6.1c-6,6.7-8.6,14.5-7.5,23.5c0.9,7.1,3.9,13.1,9.3,17.8c5.7,5,11.6,9.9,17.4,14.8c9.7,8.2,19.3,16.3,29,24.5
			c5,4.3,6.8,10.3,4.8,16.6c-2,6.1-4.2,12.1-6.7,18c-6.8,16.5-15.3,32-25.5,46.7c-6.1,8.8-12.8,17.2-20,25.2
			c-4.1,4.5-9.1,6.1-15,4.7c-3-0.7-5.8-1.9-8.7-3c-8.4-3-16.8-6-25.2-9c-8-2.8-15.9-5.7-23.9-8.5c-5.1-1.8-10.3-2.5-15.6-1.3
			c-12.2,2.8-20.2,10.1-23.1,22.4c-1.7,7.4-2.8,14.9-4.2,22.4c-2.3,12.4-4.6,24.7-6.8,37.1c-0.9,5.1-3.6,8.8-8.2,11.2
			c-1.9,1-4,1.3-6.1,1.7c-11.7,2.4-23.4,3.9-35.3,4.5C262.2,499.8,259.9,499.6,257.5,500z M249.9,177.3c-40.1,0-72.6,32.5-72.6,72.6
			c0,40.1,32.5,72.8,72.5,72.8c40.5,0,72.9-32.5,72.9-73C322.7,209.8,290,177.3,249.9,177.3z"/>
	</g>
</g>
</svg>
