<?xml version="1.0" encoding="utf-8"?>
<!-- Generator: Adobe Illustrator 26.2.1, SVG Export Plug-In . SVG Version: 6.00 Build 0)  -->
<svg version="1.1" id="Layer_1" xmlns="http://www.w3.org/2000/svg" xmlns:xlink="http://www.w3.org/1999/xlink" x="0px" y="0px"
	 viewBox="0 0 500 500" style="enable-background:new 0 0 500 500;" xml:space="preserve">
<style type="text/css">
	.st0{fill:#231F20;}
	.st1{fill:#FFFFFF;}
	.st2{fill:none;stroke:#231F20;stroke-width:6;stroke-miterlimit:10;}
</style>
<g>
	<g>
		<path class="st0" d="M269.2,33.1c10.7,2.8,11,12.9,14,20.7c23,59.5,45.1,119.4,68.4,178.8c17.6,44.9,36.5,89.3,54.8,133.9
			c3.2,7.8,5,15.8-3.5,20.9c-8.1,5-13.6-0.2-19.9-6c-18.5-17.2-39.9-29.9-64-38.4c-49.9-17.6-100-13.7-150.2-2.2
			c-2.1,0.5-4.1,1.1-6.1,1.8c-0.5,0.1-0.8,0.6-1.7,1.2c15.8,27.7,31.7,55.3,47.4,83c11,19.5,7,31.9-12.7,40c-4.8,0-9.6,0-14.4,0
			c-22.9-6.7-29-28.7-40.7-45.3c-13.8-19.4-25.8-40.1-38.8-60.7c-4,1.1-8.4,2.3-13.1,3.6c-0.9-1.8-1.7-3.1-2.3-4.6
			C73.6,326,61,291.9,48,258.1c-4.1-10.8,0.4-15.8,10-19.1c24.9-8.3,49.8-16.6,73-28.9c38.8-20.6,71.2-48.3,93.9-86.6
			c13.1-22,22.2-45.3,25.6-70.7c1.1-8.2,4-14.7,10.6-19.6C263.8,33.1,266.5,33.1,269.2,33.1z"/>
		<path class="st0" d="M500,229.6c-2.6,16.2-5.8,32.2-13,47.1c-3.7,7.8-9.8,8.9-16.9,5c-6.6-3.6-8.3-9.1-5.4-16.2
			c20.7-51.3,11.7-98.3-21.6-141.1c-11.3-14.4-25.4-26.2-42-34.9c-6.4-3.4-11.1-9.2-6.8-17.1c4.4-8.2,11.1-9.3,19.1-4.5
			c34.7,20.8,60.7,49.4,76.1,86.9c5.7,13.9,8.5,28.8,10.5,43.7C500,208.9,500,219.2,500,229.6z"/>
		<path class="st0" d="M0,287.9c4.2-14.2,11.3-25.5,27.2-28.6c3.1-0.6,6.2-0.8,7.5,2.6c13.3,35.3,26.4,70.6,39.6,105.8
			c-22.1,14-47,5.7-56.4-18.2c-6-15.2-11.9-30.4-17.8-45.7C0,298.6,0,293.3,0,287.9z"/>
		<path class="st0" d="M420.9,212.1c-0.9-32.7-16.8-56.7-43.9-74c-7.6-4.9-11.6-10.9-5.7-19.1c5.6-7.7,12.6-6.6,19.8-1.5
			c45.3,32,61.9,72.5,50.5,123.3c-0.2,1-0.3,2.2-0.8,3.1c-4.6,8.7-4.6,24-20.3,18.2c-14.8-5.4-7-16.6-3.6-25.8
			C420,228.5,420.5,220.4,420.9,212.1z"/>
		<path class="st0" d="M389.1,214.7c-0.4,6.5-2,15.4-8.6,22.3c-3.1,3.2-5.8,9.5-11.9,5.8c-6.4-3.9-8.8-10.5-7.3-17.7
			c5-23.2,4.1-25.8-15.4-38.8c-6.2-4.1-8.7-9.7-5.3-16.4c3.4-6.6,9.3-8,16.3-5.3C376.9,172.4,389.3,190.4,389.1,214.7z"/>
	</g>
</g>
</svg>
