<?xml version="1.0" encoding="UTF-8"?><svg id="a" xmlns="http://www.w3.org/2000/svg" viewBox="0 0 499.86 497.36"><path d="M0,481.54c2.96-10.4,4.91-21.03,7.28-31.56,5.89-26.15,11.66-52.32,17.5-78.48,.26-1.15,.1-2.81,1.44-3.16,1.16-.31,1.88,1.11,2.66,1.89,32.07,32.06,64.12,64.13,96.17,96.21,.78,.79,2.18,1.49,1.91,2.66-.32,1.4-1.97,1.22-3.13,1.5-35.74,8.69-71.48,17.4-107.23,26.02-8.45,2.04-12.65-.02-16.59-7.59v-7.49Z"/><path d="M411.93,184.5c.07,.77-.39,1.23-.8,1.68-.63,.69-1.3,1.35-1.96,2.01-83.63,83.65-167.27,167.29-250.91,250.94q-3.25,3.25-6.43,.07c-31.99-32.01-63.99-64.01-95.98-96.02q-2.91-2.91-.07-5.76c83.48-83.5,166.96-167.01,250.45-250.5,4.88-4.88,3.71-4.87,8.69,.11,31.57,31.54,63.13,63.11,94.68,94.67,.87,.87,1.91,1.63,2.33,2.8Z"/><path d="M412.46,0c11.71,.17,22.12,3.98,30.5,12.16,15.84,15.47,31.58,31.07,47.01,46.96,13.09,13.49,13.23,34.45,.17,47.98-16.24,16.83-33.03,33.14-49.51,49.75-1.96,1.98-3.09,1.05-4.56-.43-11.22-11.28-22.48-22.52-33.73-33.77-20.96-20.96-41.91-41.91-62.87-62.87-3.01-3.01-3.02-3.03,.01-6.05,14.15-14.08,28.15-28.32,42.53-42.16C390.32,3.57,400.76,.03,412.46,0Z"/></svg>